<svg xmlns="http://www.w3.org/2000/svg" xmlns:xlink="http://www.w3.org/1999/xlink" viewBox="0 0 1024 1024"><defs><style>.cls-1{fill:url(#linear-gradient);}.cls-2{fill:#2e3192;}.cls-3{fill:url(#linear-gradient-2);}.cls-4{fill:url(#linear-gradient-3);}.cls-5{fill:url(#linear-gradient-4);}</style><linearGradient id="linear-gradient" x1="628.53" y1="426.73" x2="628.53" y2="432.49" gradientUnits="userSpaceOnUse"><stop offset="0" stop-color="#450ed1"/><stop offset="1" stop-color="aqua"/></linearGradient><linearGradient id="linear-gradient-2" x1="512.75" y1="284.89" x2="512.75" y2="556.6" gradientUnits="userSpaceOnUse"><stop offset="0" stop-color="aqua"/><stop offset="1" stop-color="#450ed1"/></linearGradient><linearGradient id="linear-gradient-3" x1="449.32" y1="280.05" x2="449.32" y2="555.55" xlink:href="#linear-gradient-2"/><linearGradient id="linear-gradient-4" x1="576.19" y1="280.05" x2="576.19" y2="555.55" xlink:href="#linear-gradient-2"/></defs><title>HeliumAnion_2</title><g id="Layer_1" data-name="Layer 1"><path class="cls-1" d="M630.07,426.67q-.53,2.51-1.17,5c-.61-.65-1.25-1.3-1.9-2Z"/><path class="cls-2" d="M526.91,608.18H498.54a5.6,5.6,0,0,1-5.66-4.72l-3.65-27.89h47l-3.65,27.89A5.6,5.6,0,0,1,526.91,608.18Z"/><path class="cls-3" d="M563.74,463.71q-.91,4.15-2,8.42c-6.24,24.94-16.21,53-31.21,84.47H495c-25.12-52.72-36.18-95.92-39.12-130.8q-.44-5.33-.64-10.42a201.94,201.94,0,0,1,1.24-33c.48-3.8,1-7.45,1.71-11a151,151,0,0,1,8.62-29.47c14.66-35.68,38.81-52.61,45.68-56.85l.3-.19.61.37c6.3,3.94,25,17.24,39.21,43.67,1.34,2.48,2.64,5.09,3.88,7.81.79,1.68,1.54,3.42,2.27,5.19C569.35,367.79,576.3,407.33,563.74,463.71Z"/><path class="cls-4" d="M448.86,426.91C446,394,450,364.41,460.59,338.82c13.91-33.52,35.34-51,45.25-57.73a119.95,119.95,0,0,0-78,204.46l59.33,71h.17C465.16,509.42,452.22,465.82,448.86,426.91Z"/><path class="cls-5" d="M519.67,281.1c9.91,6.7,31.34,24.21,45.25,57.73,10.61,25.59,14.56,55.22,11.72,88.09-3.36,38.91-16.3,82.51-38.47,129.68h.18l59.32-71a120,120,0,0,0-78-204.47Z"/><path class="cls-2" d="M652.61,468.61c-4.31,8.93-15.79,13.52-33.5,13.52q-2.86,0-5.93-.16-3.55-.18-7.38-.59l-.24,0C576.47,478.27,537.28,466,498,447.81q-3.52-1.64-7.07-3.35c-25.18-12.18-48.73-26-68.33-40.09a239,239,0,0,0-25.15,20.75c-.69.66-1.36,1.33-2,2q-4,4-7.05,7.67c-8.3,9.92-11.77,18.21-9.44,23.07,2.23,4.63,10,7.09,21.76,7.11q2.46,4.35,5.27,8.5-2.72.14-5.23.14c-15.81,0-25.74-4-29.57-12-4.51-9.39.5-21.9,14.92-37.24h0q2.5-2.65,5.38-5.43c.72-.7,1.47-1.4,2.22-2.09h0A250.32,250.32,0,0,1,415.38,399a237.53,237.53,0,0,1-22.94-19.7q-2.8-2.77-5.26-5.45c-15.2-16.59-20.6-30.65-15.63-40.94s19.5-14.86,42.17-13.19q-3.34,4-6.34,8.3c-15.16-.39-25.16,2.61-28.06,8.63s.92,15.59,10.52,27.14q3.75,4.5,8.66,9.37a232.83,232.83,0,0,0,24.21,20.56c9.17-6.44,19.18-12.83,29.82-19.06,12.56-7.35,26-14.48,39.89-21.16a522.05,522.05,0,0,1,64.75-26.08A313.46,313.46,0,0,1,597.71,317l2.9-.49c2.57-.41,5-.77,7.45-1,24.3-2.92,39.63.85,44.51,11,4.61,9.6-1.09,23-16.48,38.86-.92-3.15-2-6.25-3.12-9.29,10-11.16,14.39-20.5,11.82-25.84-2.73-5.69-13.65-8-30-6.76q-4.74.38-10.06,1.16L602,325a292,292,0,0,0-40.88,10.17,509.53,509.53,0,0,0-65,26.06c-15.86,7.61-31.08,15.82-45,24.28-7.38,4.45-14.41,9-21,13.54a462.51,462.51,0,0,0,64.62,37.6q3.49,1.68,7,3.31c38.32,17.8,76.44,29.75,104.61,32.78l.18,0a122,122,0,0,0,12.94.72c13.67,0,22.7-3,25.42-8.66s-.58-14.63-9.14-25.41q1.55-5,2.68-10.22C652.5,445.13,657.41,458.67,652.61,468.61Z"/><path d="M115,635.89q1-.14,2.49-.22t2.63-.07q1.32,0,2.63.07t2.34.22v44.8h51.82v-44.8c.68-.09,1.47-.17,2.34-.22s1.76-.07,2.63-.07,1.66,0,2.63.07,1.8.12,2.49.22V741.15a21.73,21.73,0,0,1-2.27.22q-1.39.07-2.85.07t-2.63-.07c-.88-.05-1.66-.12-2.34-.22V689.91H125.1v51.24q-1,.15-2.34.22t-2.63.07q-1.47,0-2.85-.07a21.67,21.67,0,0,1-2.27-.22Z"/><path d="M217.91,705.28q0,14.93,6.88,22t20.64,7a52.52,52.52,0,0,0,10.32-1,67.11,67.11,0,0,0,9.3-2.56,17.45,17.45,0,0,1,1.17,4,40.24,40.24,0,0,1,.59,4.24,42.92,42.92,0,0,1-10,2.93,70.83,70.83,0,0,1-12.44,1,43.68,43.68,0,0,1-16.61-2.85,29.89,29.89,0,0,1-11.42-8,32.45,32.45,0,0,1-6.59-12.22,54.26,54.26,0,0,1-2.12-15.59,57.64,57.64,0,0,1,2-15.37,37.61,37.61,0,0,1,6-12.59A27.87,27.87,0,0,1,226,667.81,34.06,34.06,0,0,1,241,664.73a32.36,32.36,0,0,1,13,2.49,26.63,26.63,0,0,1,9.59,7,29.9,29.9,0,0,1,5.85,10.69,44.57,44.57,0,0,1,2,13.54q0,1.32-.07,3.37t-.22,3.51Zm43.92-8.05a34.6,34.6,0,0,0-1.17-8.93,22.08,22.08,0,0,0-3.66-7.68,18.8,18.8,0,0,0-6.44-5.34,20.48,20.48,0,0,0-9.52-2q-10.25,0-16,6.29t-6.88,17.71Z"/><path d="M289.79,633.55a23,23,0,0,1,2.42-.22q1.54-.07,2.42-.07c.49,0,1.27,0,2.34.07a23.48,23.48,0,0,1,2.49.22v90.32a16,16,0,0,0,.88,5.93,7,7,0,0,0,2.2,3.07,6.39,6.39,0,0,0,2.93,1.17,22,22,0,0,0,2.93.22,27.38,27.38,0,0,0,3.37-.22,25.43,25.43,0,0,0,2.93-.51,15.67,15.67,0,0,1,1,3.81q.29,2.05.44,3.81a21,21,0,0,1-4.61,1,42.45,42.45,0,0,1-4.76.29,29.37,29.37,0,0,1-6.15-.66,13.72,13.72,0,0,1-5.49-2.49,12.91,12.91,0,0,1-3.88-5,19.75,19.75,0,0,1-1.46-8.27Z"/><path d="M332.24,674.69h-9.37a13.91,13.91,0,0,1-.22-1.76c-.05-.68-.07-1.41-.07-2.2s0-1.56.07-2.34a14.47,14.47,0,0,1,.22-1.9h19v74.66a22.44,22.44,0,0,1-2.42.22c-1,0-1.83.07-2.42.07s-1.27,0-2.34-.07a22.87,22.87,0,0,1-2.49-.22Zm-4.83-26.5q-.15-1.32-.22-3.22t-.07-3.22q0-1.17.07-2.93c0-1.17.12-2.15.22-2.93q1.32-.14,3.22-.22t3.22-.07q1.17,0,2.93.07t2.93.22c.1.78.17,1.76.22,2.93s.07,2.15.07,2.93,0,2-.07,3.22-.12,2.34-.22,3.22q-1.17.15-2.93.22t-2.93.07q-1.32,0-3.22-.07T327.41,648.19Z"/><path d="M364.15,666.49a22.77,22.77,0,0,1,2.49-.22c1.07,0,1.85-.07,2.34-.07s1.39,0,2.42.07a22.34,22.34,0,0,1,2.42.22v42a43.41,43.41,0,0,0,1.61,13,17.6,17.6,0,0,0,4.76,7.91,17.24,17.24,0,0,0,7.68,4,43.63,43.63,0,0,0,10.25,1.1,65,65,0,0,0,8.64-.51,43.78,43.78,0,0,0,6.73-1.39v-66a22.77,22.77,0,0,1,2.49-.22c1.07,0,1.85-.07,2.34-.07s1.39,0,2.42.07a22.4,22.4,0,0,1,2.42.22v72.75q-5.42,1.47-12.08,2.56a84.17,84.17,0,0,1-13.69,1.1,61,61,0,0,1-13-1.32,24.12,24.12,0,0,1-10.54-5.05,25.4,25.4,0,0,1-7.1-10.32q-2.63-6.59-2.63-17.13Z"/><path d="M446,666.49c.78-.1,1.54-.17,2.27-.22s1.44-.07,2.12-.07,1.51,0,2.2.07,1.41.12,2.19.22q.29,2.63.44,6.29t.15,6.59a29.22,29.22,0,0,1,3.37-5.41,24.42,24.42,0,0,1,4.83-4.69,23.84,23.84,0,0,1,6.37-3.29,24.75,24.75,0,0,1,8.13-1.24,23.28,23.28,0,0,1,7.32,1,16.61,16.61,0,0,1,9.15,7.17,42.56,42.56,0,0,1,2.85,5.56q1.61-2.34,3.66-4.83a27,27,0,0,1,4.68-4.46,23.25,23.25,0,0,1,6.08-3.22,22.5,22.5,0,0,1,7.68-1.24q13,0,18.81,7.46t5.78,21.37v47.58a22.44,22.44,0,0,1-2.41.22q-1.54.07-2.42.07c-.49,0-1.27,0-2.34-.07a22.87,22.87,0,0,1-2.49-.22V696.94q0-11.86-3.88-17.57t-11.64-5.71a17,17,0,0,0-8.2,1.9,17.4,17.4,0,0,0-5.86,5.12,23.93,23.93,0,0,0-3.59,7.54,32.88,32.88,0,0,0-1.24,9.15v43.77a22.44,22.44,0,0,1-2.41.22q-1.54.07-2.42.07c-.49,0-1.27,0-2.34-.07a22.87,22.87,0,0,1-2.49-.22V695q0-11.27-3.59-16.69a11.64,11.64,0,0,0-10.32-5.42,16,16,0,0,0-8.34,2.27,20.91,20.91,0,0,0-6.59,6.37,32.4,32.4,0,0,0-4.32,9.73,47,47,0,0,0-1.54,12.37v37.48a22.44,22.44,0,0,1-2.42.22q-1.54.07-2.41.07c-.49,0-1.27,0-2.34-.07a22.87,22.87,0,0,1-2.49-.22Z"/><path d="M590.61,635.89q1-.14,2.78-.22t3.22-.07q1.61,0,3.29.07t2.71.22l35.13,105.25a22.92,22.92,0,0,1-2.49.22q-1.61.07-3.07.07t-2.78-.07q-1.47-.08-2.49-.22l-8.78-26.79H574.8l-8.34,26.79q-1.17.15-2.71.22t-2.85.07c-1,0-2,0-3-.07a22.49,22.49,0,0,1-2.42-.22ZM615.21,705l-18.88-58.55L577.73,705Z"/><path d="M650.63,666.49c.78-.1,1.54-.17,2.27-.22s1.44-.07,2.12-.07,1.51,0,2.2.07,1.41.12,2.19.22q.29,2.63.44,6.59T660,680a32,32,0,0,1,3.81-5.34,29.46,29.46,0,0,1,5.49-4.9,28.73,28.73,0,0,1,7.25-3.59,27.64,27.64,0,0,1,8.93-1.39q12.88,0,18.74,7.68T710.06,694v47.14a22.44,22.44,0,0,1-2.42.22c-1,0-1.83.07-2.42.07s-1.27,0-2.34-.07a22.87,22.87,0,0,1-2.49-.22V696.94q0-12.44-3.88-17.86t-11.64-5.41a23.19,23.19,0,0,0-9.66,2,22.14,22.14,0,0,0-7.83,5.93,28.6,28.6,0,0,0-5.2,9.59,41.09,41.09,0,0,0-1.9,13v36.89a22.44,22.44,0,0,1-2.42.22q-1.54.07-2.41.07c-.49,0-1.27,0-2.34-.07a22.87,22.87,0,0,1-2.49-.22Z"/><path d="M736,674.69H726.6a13.91,13.91,0,0,1-.22-1.76c-.05-.68-.07-1.41-.07-2.2s0-1.56.07-2.34a14.47,14.47,0,0,1,.22-1.9h19v74.66a22.44,22.44,0,0,1-2.42.22c-1,0-1.83.07-2.42.07s-1.27,0-2.34-.07a22.87,22.87,0,0,1-2.49-.22Zm-4.83-26.5q-.15-1.32-.22-3.22t-.07-3.22q0-1.17.07-2.93c0-1.17.12-2.15.22-2.93q1.32-.14,3.22-.22t3.22-.07q1.17,0,2.93.07t2.93.22c.1.78.17,1.76.22,2.93s.07,2.15.07,2.93,0,2-.07,3.22-.12,2.34-.22,3.22q-1.17.15-2.93.22t-2.93.07q-1.32,0-3.22-.07T731.14,648.19Z"/><path d="M797.6,742.9a33.69,33.69,0,0,1-14.64-3,29.1,29.1,0,0,1-10.47-8.27,35.53,35.53,0,0,1-6.22-12.44,58.67,58.67,0,0,1,0-30.74A35.55,35.55,0,0,1,772.49,676,29.15,29.15,0,0,1,783,667.73a33.69,33.69,0,0,1,14.64-3,33.21,33.21,0,0,1,14.57,3A29.33,29.33,0,0,1,822.56,676a36.48,36.48,0,0,1,6.29,12.44,56.71,56.71,0,0,1,0,30.74,36.46,36.46,0,0,1-6.29,12.44,29.28,29.28,0,0,1-10.39,8.27A33.21,33.21,0,0,1,797.6,742.9Zm0-8.49q11.71,0,17.49-8.2t5.78-22.4q0-14.2-5.78-22.4t-17.49-8.2q-11.71,0-17.49,8.2t-5.78,22.4q0,14.2,5.78,22.4T797.6,734.41Z"/><path d="M849.57,666.49c.78-.1,1.54-.17,2.27-.22s1.44-.07,2.12-.07,1.51,0,2.2.07,1.41.12,2.19.22q.29,2.63.44,6.59t.15,6.88a32,32,0,0,1,3.81-5.34,29.46,29.46,0,0,1,5.49-4.9,28.73,28.73,0,0,1,7.25-3.59,27.64,27.64,0,0,1,8.93-1.39q12.88,0,18.74,7.68T909,694v47.14a22.44,22.44,0,0,1-2.42.22c-1,0-1.83.07-2.42.07s-1.27,0-2.34-.07a22.87,22.87,0,0,1-2.49-.22V696.94q0-12.44-3.88-17.86t-11.64-5.41a23.19,23.19,0,0,0-9.66,2,22.14,22.14,0,0,0-7.83,5.93,28.6,28.6,0,0,0-5.2,9.59,41.09,41.09,0,0,0-1.9,13v36.89a22.44,22.44,0,0,1-2.42.22q-1.54.07-2.41.07c-.49,0-1.27,0-2.34-.07a22.87,22.87,0,0,1-2.49-.22Z"/></g></svg>