<svg xmlns="http://www.w3.org/2000/svg" xmlns:xlink="http://www.w3.org/1999/xlink" viewBox="0 0 1024 1024"><defs><style>.cls-1{fill:url(#linear-gradient);}.cls-2{fill:#2e3192;}.cls-3{fill:url(#linear-gradient-2);}.cls-4{fill:url(#linear-gradient-3);}.cls-5{fill:url(#linear-gradient-4);}</style><linearGradient id="linear-gradient" x1="223.75" y1="501.38" x2="223.75" y2="504.79" gradientUnits="userSpaceOnUse"><stop offset="0" stop-color="#450ed1"/><stop offset="1" stop-color="aqua"/></linearGradient><linearGradient id="linear-gradient-2" x1="155.07" y1="417.25" x2="155.07" y2="578.41" gradientUnits="userSpaceOnUse"><stop offset="0" stop-color="aqua"/><stop offset="1" stop-color="#450ed1"/></linearGradient><linearGradient id="linear-gradient-3" x1="117.45" y1="414.38" x2="117.45" y2="577.79" xlink:href="#linear-gradient-2"/><linearGradient id="linear-gradient-4" x1="192.7" y1="414.38" x2="192.7" y2="577.79" xlink:href="#linear-gradient-2"/></defs><title>HeliumAnion_1</title><g id="Layer_1" data-name="Layer 1"><path d="M279.43,467.67q.87-.12,2.11-.19t2.24-.06q1.12,0,2.24.06t2,.19v38h44v-38c.58-.08,1.24-.14,2-.19s1.49-.06,2.24-.06,1.41,0,2.24.06,1.53.11,2.11.19v89.4a18.38,18.38,0,0,1-1.93.19q-1.18.06-2.42.06t-2.24-.06c-.75,0-1.41-.1-2-.19V513.55H288v43.52q-.87.12-2,.19t-2.24.06q-1.25,0-2.42-.06a18.33,18.33,0,0,1-1.93-.19Z"/><path d="M366.84,526.61q0,12.68,5.84,18.65t17.53,6a44.59,44.59,0,0,0,8.77-.81,56.77,56.77,0,0,0,7.9-2.18,14.74,14.74,0,0,1,1,3.36,34,34,0,0,1,.5,3.61,36.45,36.45,0,0,1-8.45,2.49,60,60,0,0,1-10.57.87,37.09,37.09,0,0,1-14.11-2.42,25.39,25.39,0,0,1-9.7-6.78,27.55,27.55,0,0,1-5.6-10.38,46.05,46.05,0,0,1-1.8-13.24,49,49,0,0,1,1.68-13.06,32,32,0,0,1,5.1-10.69,23.68,23.68,0,0,1,8.77-7.21,28.92,28.92,0,0,1,12.81-2.61,27.46,27.46,0,0,1,11.07,2.11,22.58,22.58,0,0,1,8.14,5.91,25.38,25.38,0,0,1,5,9.08,37.82,37.82,0,0,1,1.68,11.5q0,1.12-.06,2.86t-.19,3Zm37.3-6.84a29.33,29.33,0,0,0-1-7.58,18.71,18.71,0,0,0-3.11-6.53,15.94,15.94,0,0,0-5.47-4.54,17.38,17.38,0,0,0-8.08-1.74q-8.7,0-13.55,5.35t-5.84,15Z"/><path d="M427.89,465.68a19.2,19.2,0,0,1,2.05-.19q1.31-.06,2.05-.06t2,.06a19.61,19.61,0,0,1,2.11.19V542.4a13.56,13.56,0,0,0,.75,5,5.9,5.9,0,0,0,1.87,2.61,5.41,5.41,0,0,0,2.49,1,18.43,18.43,0,0,0,2.49.19,23,23,0,0,0,2.86-.19,21.41,21.41,0,0,0,2.49-.43,13.33,13.33,0,0,1,.87,3.23q.25,1.74.37,3.23a17.73,17.73,0,0,1-3.92.87,36,36,0,0,1-4,.25,24.84,24.84,0,0,1-5.22-.56,11.66,11.66,0,0,1-4.66-2.11,11,11,0,0,1-3.29-4.23,16.78,16.78,0,0,1-1.24-7Z"/><path d="M463.95,500.62h-8a11.8,11.8,0,0,1-.19-1.49c0-.58-.06-1.2-.06-1.86s0-1.33.06-2a12.25,12.25,0,0,1,.19-1.62h16.16v63.41a19,19,0,0,1-2.05.19q-1.3.06-2.05.06t-2-.06a19.35,19.35,0,0,1-2.11-.19Zm-4.1-22.5q-.13-1.12-.19-2.74c0-1.08-.06-2-.06-2.74s0-1.49.06-2.49.1-1.82.19-2.49q1.12-.12,2.74-.19t2.74-.06q1,0,2.49.06c1,0,1.82.11,2.49.19.08.66.14,1.49.19,2.49s.06,1.82.06,2.49,0,1.66-.06,2.74-.1,2-.19,2.74c-.66.08-1.49.15-2.49.19s-1.82.06-2.49.06-1.66,0-2.74-.06S460.59,478.2,459.84,478.12Z"/><path d="M491,493.66a19.56,19.56,0,0,1,2.11-.19q1.37-.06,2-.06t2.05.06a19.2,19.2,0,0,1,2.05.19v35.68a36.89,36.89,0,0,0,1.37,11,15,15,0,0,0,4,6.71,14.65,14.65,0,0,0,6.53,3.36,37.12,37.12,0,0,0,8.7.93,55.24,55.24,0,0,0,7.34-.44,37.4,37.4,0,0,0,5.72-1.18V493.66a19.56,19.56,0,0,1,2.11-.19q1.37-.06,2-.06t2.05.06a19.2,19.2,0,0,1,2.05.19v61.8a104.81,104.81,0,0,1-10.26,2.18,71.41,71.41,0,0,1-11.63.93,51.86,51.86,0,0,1-11-1.12,20.47,20.47,0,0,1-9-4.29,21.59,21.59,0,0,1-6-8.77q-2.24-5.6-2.24-14.55Z"/><path d="M560.56,493.66q1-.12,1.93-.19t1.8-.06q1,0,1.87.06t1.87.19q.25,2.24.37,5.35t.12,5.6a24.76,24.76,0,0,1,2.86-4.6,20.79,20.79,0,0,1,4.1-4,20.24,20.24,0,0,1,5.41-2.8,21,21,0,0,1,6.9-1.06A19.8,19.8,0,0,1,594,493a14.11,14.11,0,0,1,7.77,6.09,36,36,0,0,1,2.42,4.72q1.37-2,3.11-4.1a23,23,0,0,1,4-3.79,19.73,19.73,0,0,1,5.16-2.74,19.11,19.11,0,0,1,6.53-1.06q11.06,0,16,6.34t4.91,18.15v40.41a19,19,0,0,1-2.05.19q-1.31.06-2.05.06t-2-.06a19.38,19.38,0,0,1-2.11-.19V519.52q0-10.07-3.29-14.92t-9.88-4.85a14.42,14.42,0,0,0-7,1.62,14.78,14.78,0,0,0-5,4.35,20.33,20.33,0,0,0-3,6.4,27.92,27.92,0,0,0-1.06,7.77v37.18a19,19,0,0,1-2.05.19q-1.31.06-2.05.06t-2-.06a19.38,19.38,0,0,1-2.11-.19V517.91q0-9.57-3-14.17a9.89,9.89,0,0,0-8.77-4.6,13.59,13.59,0,0,0-7.09,1.93,17.78,17.78,0,0,0-5.59,5.41,27.52,27.52,0,0,0-3.67,8.27,39.9,39.9,0,0,0-1.31,10.51v31.83a19,19,0,0,1-2.05.19q-1.31.06-2.05.06t-2-.06a19.38,19.38,0,0,1-2.11-.19Z"/><path d="M683.4,467.67q.87-.12,2.36-.19t2.74-.06q1.37,0,2.8.06t2.3.19l29.84,89.4a19.42,19.42,0,0,1-2.11.19q-1.37.06-2.61.06t-2.36-.06q-1.24-.06-2.11-.19l-7.46-22.75H670l-7.09,22.75c-.66.08-1.43.14-2.3.19s-1.68.06-2.42.06-1.68,0-2.55-.06a19,19,0,0,1-2.05-.19Zm20.89,58.69-16-49.74-15.79,49.74Z"/><path d="M734.38,493.66q1-.12,1.93-.19t1.8-.06q1,0,1.87.06t1.87.19q.25,2.24.37,5.59t.12,5.84a27.12,27.12,0,0,1,3.23-4.54,25.07,25.07,0,0,1,4.66-4.17,24.36,24.36,0,0,1,6.15-3,23.47,23.47,0,0,1,7.58-1.18q10.94,0,15.92,6.53t5,18.34v40a19,19,0,0,1-2.05.19q-1.31.06-2.05.06c-.42,0-1.08,0-2-.06a19.38,19.38,0,0,1-2.11-.19V519.52q0-10.57-3.3-15.17t-9.88-4.6a19.7,19.7,0,0,0-8.21,1.74,18.8,18.8,0,0,0-6.65,5,24.28,24.28,0,0,0-4.41,8.14,34.92,34.92,0,0,0-1.62,11.07v31.33a19,19,0,0,1-2.05.19q-1.31.06-2.05.06t-2-.06a19.38,19.38,0,0,1-2.11-.19Z"/><path d="M806.87,500.62h-8a11.8,11.8,0,0,1-.19-1.49c0-.58-.06-1.2-.06-1.86s0-1.33.06-2a12.25,12.25,0,0,1,.19-1.62h16.16v63.41a19,19,0,0,1-2.05.19q-1.3.06-2.05.06t-2-.06a19.35,19.35,0,0,1-2.11-.19Zm-4.1-22.5q-.13-1.12-.19-2.74c0-1.08-.06-2-.06-2.74s0-1.49.06-2.49.1-1.82.19-2.49q1.12-.12,2.74-.19t2.74-.06q1,0,2.49.06c1,0,1.82.11,2.49.19.08.66.14,1.49.19,2.49s.06,1.82.06,2.49,0,1.66-.06,2.74-.1,2-.19,2.74c-.66.08-1.49.15-2.49.19s-1.82.06-2.49.06-1.66,0-2.74-.06S803.51,478.2,802.76,478.12Z"/><path d="M859.21,558.56A28.6,28.6,0,0,1,846.78,556a24.71,24.71,0,0,1-8.89-7,30.12,30.12,0,0,1-5.28-10.57,49.81,49.81,0,0,1,0-26.11,30.15,30.15,0,0,1,5.28-10.57,24.73,24.73,0,0,1,8.89-7,28.6,28.6,0,0,1,12.43-2.55,28.2,28.2,0,0,1,12.37,2.55,24.89,24.89,0,0,1,8.83,7,31,31,0,0,1,5.35,10.57,48.16,48.16,0,0,1,0,26.11A31,31,0,0,1,880.41,549a24.87,24.87,0,0,1-8.83,7A28.2,28.2,0,0,1,859.21,558.56Zm0-7.21q9.95,0,14.86-7t4.91-19q0-12.06-4.91-19t-14.86-7q-9.95,0-14.86,7t-4.91,19q0,12.06,4.91,19T859.21,551.35Z"/><path d="M903.35,493.66q1-.12,1.93-.19t1.8-.06q1,0,1.87.06t1.87.19q.25,2.24.37,5.59t.12,5.84a27.12,27.12,0,0,1,3.23-4.54,25.07,25.07,0,0,1,4.66-4.17,24.36,24.36,0,0,1,6.15-3,23.47,23.47,0,0,1,7.58-1.18q10.94,0,15.92,6.53t5,18.34v40a19,19,0,0,1-2.05.19q-1.31.06-2.05.06c-.42,0-1.08,0-2-.06a19.38,19.38,0,0,1-2.11-.19V519.52q0-10.57-3.3-15.17t-9.88-4.6a19.7,19.7,0,0,0-8.21,1.74,18.8,18.8,0,0,0-6.65,5,24.28,24.28,0,0,0-4.41,8.14,34.92,34.92,0,0,0-1.62,11.07v31.33a19,19,0,0,1-2.05.19q-1.31.06-2.05.06t-2-.06a19.38,19.38,0,0,1-2.11-.19Z"/><path class="cls-1" d="M224.65,501.34q-.31,1.49-.69,3l-1.13-1.17Z"/><path class="cls-2" d="M163.47,609H146.64a3.32,3.32,0,0,1-3.36-2.8l-2.17-16.54H169l-2.17,16.54A3.32,3.32,0,0,1,163.47,609Z"/><path class="cls-3" d="M185.31,523.31q-.54,2.46-1.18,5a268.38,268.38,0,0,1-18.51,50.1h-21.1c-14.9-31.27-21.46-56.89-23.2-77.58q-.26-3.16-.38-6.18a119.77,119.77,0,0,1,.74-19.59c.29-2.26.62-4.42,1-6.5a89.54,89.54,0,0,1,5.11-17.48c8.69-21.17,23-31.2,27.1-33.72l.18-.11.36.22c3.74,2.34,14.8,10.22,23.26,25.9.79,1.47,1.57,3,2.3,4.63.47,1,.91,2,1.34,3.08C188.64,466.42,192.77,489.87,185.31,523.31Z"/><path class="cls-4" d="M117.18,501.49c-1.68-19.49.66-37.07,7-52.25,8.25-19.88,21-30.27,26.84-34.24A71.14,71.14,0,0,0,104.7,536.27l35.19,42.14h.1C126.85,550.43,119.17,524.57,117.18,501.49Z"/><path class="cls-5" d="M159.18,415c5.88,4,18.59,14.36,26.84,34.24,6.3,15.18,8.63,32.75,7,52.25-2,23.08-9.67,48.94-22.82,76.92h.11l35.18-42.13A71.15,71.15,0,0,0,159.18,415Z"/><path class="cls-2" d="M238,526.22c-2.56,5.3-9.37,8-19.87,8q-1.7,0-3.52-.09-2.1-.11-4.38-.35l-.14,0c-17.25-1.83-40.5-9.09-63.77-19.9l-4.19-2a276.79,276.79,0,0,1-40.53-23.78,141.74,141.74,0,0,0-14.92,12.3l-1.2,1.18q-2.35,2.35-4.18,4.55c-4.92,5.89-7,10.8-5.6,13.68s5.9,4.21,12.9,4.22q1.46,2.58,3.13,5-1.61.08-3.1.08c-9.38,0-15.27-2.39-17.54-7.13-2.68-5.57.3-13,8.85-22.09h0q1.48-1.57,3.19-3.22l1.32-1.24h0a148.47,148.47,0,0,1,12.84-10.56,140.89,140.89,0,0,1-13.61-11.69q-1.66-1.64-3.12-3.23c-9-9.84-12.22-18.18-9.27-24.28s11.57-8.81,25-7.82q-2,2.38-3.76,4.92c-9-.23-14.92,1.55-16.65,5.12s.55,9.25,6.24,16.1q2.23,2.67,5.14,5.56a138.1,138.1,0,0,0,14.36,12.19c5.44-3.82,11.38-7.61,17.69-11.31,7.45-4.36,15.41-8.59,23.66-12.55a309.64,309.64,0,0,1,38.4-15.47,185.92,185.92,0,0,1,24-6.17l1.72-.29c1.53-.25,3-.46,4.42-.62,14.41-1.73,23.5.51,26.4,6.54,2.73,5.69-.65,13.62-9.78,23-.55-1.87-1.17-3.71-1.85-5.51,5.95-6.62,8.54-12.16,7-15.32-1.62-3.37-8.1-4.77-17.82-4q-2.81.22-6,.69l-1.59.25a173.21,173.21,0,0,0-24.25,6,302.22,302.22,0,0,0-38.53,15.46c-9.41,4.51-18.43,9.38-26.72,14.4-4.38,2.64-8.55,5.33-12.46,8a274.32,274.32,0,0,0,38.33,22.3q2.07,1,4.13,2c22.73,10.56,45.34,17.64,62,19.44h.11a72.35,72.35,0,0,0,7.68.43c8.11,0,13.47-1.8,15.08-5.14s-.34-8.68-5.42-15.07q.92-3,1.59-6.06C238,512.29,240.87,520.32,238,526.22Z"/></g></svg>